<svg width="124" height="91" viewBox="0 0 124 91" fill="none" xmlns="http://www.w3.org/2000/svg">
<rect x="2" y="2" width="99.168" height="60.48" rx="8" stroke="#777777" stroke-width="4"/>
<rect x="22.832" y="27.792" width="99.168" height="60.48" rx="8" fill="#EDEDED" stroke="#777777" stroke-width="4"/>
<path d="M38.837 41.9379C38.4644 41.9379 38.1307 42.0116 37.836 42.1589C37.55 42.3062 37.3074 42.5186 37.108 42.7959C36.9087 43.0646 36.757 43.3939 36.653 43.7839C36.5577 44.1739 36.51 44.6116 36.51 45.0969C36.51 45.7556 36.588 46.3189 36.744 46.7869C36.9087 47.2462 37.1644 47.5972 37.511 47.8399C37.8577 48.0826 38.2997 48.2039 38.837 48.2039C39.2184 48.2039 39.5954 48.1606 39.968 48.0739C40.3494 47.9872 40.761 47.8659 41.203 47.7099V49.3609C40.7957 49.5256 40.3927 49.6469 39.994 49.7249C39.5954 49.8029 39.149 49.8419 38.655 49.8419C37.7017 49.8419 36.913 49.6469 36.289 49.2569C35.6737 48.8582 35.2187 48.3036 34.924 47.5929C34.6294 46.8736 34.482 46.0372 34.482 45.0839C34.482 44.3819 34.5774 43.7406 34.768 43.1599C34.9587 42.5706 35.236 42.0636 35.6 41.6389C35.9727 41.2142 36.4277 40.8849 36.965 40.6509C37.511 40.4169 38.135 40.2999 38.837 40.2999C39.2964 40.2999 39.7557 40.3606 40.215 40.4819C40.683 40.5946 41.1294 40.7506 41.554 40.9499L40.917 42.5489C40.5704 42.3842 40.2194 42.2412 39.864 42.1199C39.5174 41.9986 39.175 41.9379 38.837 41.9379ZM48.8564 49.7119L48.1804 47.5019H44.8004L44.1244 49.7119H42.0054L45.2814 40.3909H47.6864L50.9754 49.7119H48.8564ZM47.0364 43.6929C46.993 43.5456 46.9367 43.3592 46.8674 43.1339C46.798 42.9086 46.7287 42.6789 46.6594 42.4449C46.59 42.2109 46.5337 42.0072 46.4904 41.8339C46.447 42.0072 46.3864 42.2239 46.3084 42.4839C46.239 42.7352 46.1697 42.9779 46.1004 43.2119C46.0397 43.4372 45.992 43.5976 45.9574 43.6929L45.2944 45.8509H47.7124L47.0364 43.6929ZM54.855 40.4299C55.6956 40.4299 56.389 40.5339 56.935 40.7419C57.481 40.9412 57.8883 41.2489 58.157 41.6649C58.4256 42.0722 58.56 42.5879 58.56 43.2119C58.56 43.6366 58.4776 44.0092 58.313 44.3299C58.157 44.6419 57.9446 44.9106 57.676 45.1359C57.416 45.3526 57.1343 45.5302 56.831 45.6689L59.561 49.7119H57.377L55.167 46.1499H54.114V49.7119H52.151V40.4299H54.855ZM54.712 42.0419H54.114V44.5509H54.751C55.1843 44.5509 55.5353 44.5032 55.804 44.4079C56.0726 44.3126 56.2676 44.1696 56.389 43.9789C56.5103 43.7796 56.571 43.5412 56.571 43.2639C56.571 42.9692 56.5016 42.7352 56.363 42.5619C56.233 42.3799 56.0293 42.2499 55.752 42.1719C55.4833 42.0852 55.1366 42.0419 54.712 42.0419ZM68.429 44.9799C68.429 46.0199 68.2297 46.8909 67.831 47.5929C67.4323 48.2949 66.8517 48.8236 66.089 49.1789C65.335 49.5342 64.425 49.7119 63.359 49.7119H60.733V40.4299H63.645C64.6157 40.4299 65.4563 40.6032 66.167 40.9499C66.8863 41.2966 67.441 41.8079 67.831 42.4839C68.2297 43.1512 68.429 43.9832 68.429 44.9799ZM66.388 45.0319C66.388 44.3472 66.2883 43.7839 66.089 43.3419C65.8897 42.8999 65.5907 42.5749 65.192 42.3669C64.802 42.1502 64.321 42.0419 63.749 42.0419H62.696V48.0869H63.541C64.503 48.0869 65.218 47.8312 65.686 47.3199C66.154 46.8086 66.388 46.0459 66.388 45.0319Z" fill="#777777"/>
<rect x="1.98389" y="11.9041" width="100.192" height="9.92" fill="#777777"/>
<circle cx="100.192" cy="44.64" r="6.944" fill="#FFCC00"/>
<circle cx="93.2482" cy="44.64" r="6.944" fill="#DB0007"/>
<rect x="96.2241" y="71.4241" width="13.888" height="3.968" fill="#777777"/>
<rect x="75.3921" y="71.4241" width="13.888" height="3.968" fill="#777777"/>
<rect x="34.7202" y="71.4241" width="13.888" height="3.968" fill="#777777"/>
<rect x="55.5518" y="71.4241" width="13.888" height="3.968" fill="#777777"/>
</svg>
