<svg width="158" height="61" viewBox="0 0 158 61" fill="none" xmlns="http://www.w3.org/2000/svg">
<g clip-path="url(#clip0_70_2379)">
<path d="M126.399 61H31.5984C14.1464 61 0 47.346 0 30.4988C0 13.6542 14.1464 0 31.5984 0H126.399C143.851 0 158 13.6542 158 30.4988C158 47.346 143.851 61 126.399 61Z" fill="#FFE000"/>
<path d="M40.8398 14.4905C31.3131 14.4905 23.5938 20.3788 23.5938 27.6417C23.5938 31.9993 26.3819 35.8567 30.6628 38.2508L28.6334 45.5702C28.4384 46.2723 29.2484 46.8317 29.8745 46.4256L38.6831 40.6853C39.3901 40.7524 40.1082 40.7929 40.8398 40.7929C50.3664 40.7929 58.0858 34.9043 58.0858 27.6417C58.0858 20.3786 50.3664 14.4905 40.8398 14.4905ZM74.3458 21.3859V34.3057C74.6711 34.346 75.492 34.4241 76.2696 34.4241C80.5262 34.4241 82.1629 31.5404 82.1629 26.9971C82.1629 23.0053 81.0602 20.595 77.6624 20.595C76.557 20.595 75.3295 20.9124 74.3458 21.3859ZM74.3458 38.3352V46.4348H68.3714V16.5655H72.5846L73.3218 18.462C74.5924 17.2379 76.5136 15.9333 79.6267 15.9333C85.4792 15.9333 88.2647 20.1619 88.2212 26.9971C88.2212 34.1469 83.9241 38.7307 77.7842 38.7307C76.5975 38.7307 75.698 38.6499 74.3458 38.3352ZM104.284 32.6073V28.6557H101.542C98.4698 28.6557 96.9145 29.7236 96.9145 31.8568C96.9145 33.4761 97.7761 34.2669 99.5347 34.2669C101.174 34.2669 103.263 33.4761 104.284 32.6073ZM100.887 24.9813H104.284V24.2712C104.284 21.8985 102.894 20.793 100.478 20.793C98.6351 20.793 96.2616 21.3068 94.3378 22.2159L92.6986 18.3424C94.8283 16.9221 98.104 15.935 101.009 15.935C106.739 15.935 109.852 18.8562 109.852 24.4272V38.1379H105.636L105.021 36.3193C102.607 38.0194 100.396 38.7296 98.3912 38.7296C94.0101 38.7296 91.5552 36.201 91.5552 31.9349C91.5552 27.3914 94.8281 24.9813 100.887 24.9813ZM127.404 35.9253C125.318 41.2998 122.82 45.2111 119.178 47.3819L115.493 44.1027C117.623 42.3248 119.135 40.5871 120.446 38.2575L112.505 17.3565L118.439 15.8152L123.516 32.7645L128.551 15.7371L134.406 17.316L127.404 35.9253Z" fill="black"/>
</g>
<defs>
<clipPath id="clip0_70_2379">
<rect width="158" height="61" fill="white"/>
</clipPath>
</defs>
</svg>
